<?xml version="1.0" encoding="UTF-8"?>
<svg width="157" height="64" viewBox="0 0 157 64" version="1.1" xmlns="http://www.w3.org/2000/svg">
  <defs>
    <linearGradient id="panel-fill" x1="0" y1="18" x2="0" y2="46" gradientUnits="userSpaceOnUse">
      <stop offset="0" stop-color="#101b2d" stop-opacity="0.97"/>
      <stop offset="1" stop-color="#09121f" stop-opacity="0.97"/>
    </linearGradient>
    <linearGradient id="panel-edge" x1="0" y1="18" x2="0" y2="46" gradientUnits="userSpaceOnUse">
      <stop offset="0" stop-color="#9fd4ff" stop-opacity="0.24"/>
      <stop offset="1" stop-color="#9fd4ff" stop-opacity="0.08"/>
    </linearGradient>
    <linearGradient id="shadow-v" x1="0" y1="10" x2="0" y2="54" gradientUnits="userSpaceOnUse">
      <stop offset="0" stop-color="#000000" stop-opacity="0.36"/>
      <stop offset="1" stop-color="#000000" stop-opacity="0"/>
    </linearGradient>
    <linearGradient id="shadow-h" x1="62" y1="0" x2="94" y2="0" gradientUnits="userSpaceOnUse">
      <stop offset="0" stop-color="#000000" stop-opacity="0.28"/>
      <stop offset="1" stop-color="#000000" stop-opacity="0"/>
    </linearGradient>
  </defs>

  <rect id="hint-tile-center" x="1" y="1" width="5" height="5" fill="#ff00ff"/>

  <g id="center">
    <rect x="70" y="24" width="18" height="16" fill="url(#panel-fill)"/>
    <rect x="70" y="24" width="18" height="1" fill="#6ec0ff" opacity="0.22"/>
  </g>
  <g id="thick-center">
    <rect x="112" y="22" width="18" height="20" fill="url(#panel-fill)"/>
    <rect x="112" y="22" width="18" height="1" fill="#6ec0ff" opacity="0.22"/>
  </g>
  <g id="top">
    <rect x="70" y="16" width="18" height="8" fill="url(#panel-fill)"/>
    <rect x="70" y="16" width="18" height="1" fill="#a6d8ff" opacity="0.28"/>
    <rect x="70" y="23" width="18" height="1" fill="#ffffff" opacity="0.03"/>
  </g>
  <g id="bottom">
    <rect x="70" y="40" width="18" height="8" fill="url(#panel-fill)"/>
    <rect x="70" y="40" width="18" height="1" fill="#000000" opacity="0.18"/>
  </g>
  <g id="left">
    <rect x="62" y="24" width="8" height="16" fill="url(#panel-fill)"/>
  </g>
  <g id="right">
    <rect x="88" y="24" width="8" height="16" fill="url(#panel-fill)"/>
  </g>
  <g id="topleft">
    <path d="M70 24H62Q62 16 70 16V24Z" fill="url(#panel-fill)"/>
    <path d="M70 16Q62 16 62 24" fill="none" stroke="url(#panel-edge)" stroke-width="1"/>
    <path d="M70 16H66" fill="none" stroke="#a6d8ff" stroke-opacity="0.28" stroke-width="1"/>
  </g>
  <g id="topright">
    <path d="M88 24H96Q96 16 88 16V24Z" fill="url(#panel-fill)"/>
    <path d="M88 16Q96 16 96 24" fill="none" stroke="url(#panel-edge)" stroke-width="1"/>
    <path d="M88 16H92" fill="none" stroke="#a6d8ff" stroke-opacity="0.28" stroke-width="1"/>
  </g>
  <g id="bottomleft">
    <path d="M70 40H62Q62 48 70 48V40Z" fill="url(#panel-fill)"/>
  </g>
  <g id="bottomright">
    <path d="M88 40H96Q96 48 88 48V40Z" fill="url(#panel-fill)"/>
  </g>

  <rect id="hint-top-margin" x="78" y="8" width="2" height="8" fill="#ff00ff"/>
  <rect id="hint-bottom-margin" x="78" y="48" width="2" height="8" fill="#ff00ff"/>
  <rect id="hint-left-margin" x="52" y="31" width="10" height="2" fill="#ff00ff"/>
  <rect id="hint-right-margin" x="96" y="31" width="10" height="2" fill="#ff00ff"/>
  <rect id="thick-hint-top-margin" x="120" y="8" width="2" height="8" fill="#ff00ff"/>
  <rect id="thick-hint-bottom-margin" x="120" y="48" width="2" height="8" fill="#ff00ff"/>
  <rect id="thick-hint-left-margin" x="104" y="31" width="8" height="2" fill="#ff00ff"/>
  <rect id="thick-hint-right-margin" x="130" y="31" width="8" height="2" fill="#ff00ff"/>
  <rect id="hint-top-inset" x="78" y="16" width="2" height="4" fill="#ff00ff"/>
  <rect id="hint-bottom-inset" x="78" y="44" width="2" height="4" fill="#ff00ff"/>
  <rect id="hint-left-inset" x="62" y="31" width="4" height="2" fill="#ff00ff"/>
  <rect id="hint-right-inset" x="92" y="31" width="4" height="2" fill="#ff00ff"/>

  <g id="mask-center"><rect x="70" y="24" width="18" height="16" fill="#ffffff"/></g>
  <g id="mask-top"><rect x="70" y="16" width="18" height="8" fill="#ffffff"/></g>
  <g id="mask-bottom"><rect x="70" y="40" width="18" height="8" fill="#ffffff"/></g>
  <g id="mask-left"><rect x="62" y="24" width="8" height="16" fill="#ffffff"/></g>
  <g id="mask-right"><rect x="88" y="24" width="8" height="16" fill="#ffffff"/></g>
  <g id="mask-topleft"><path d="M70 24H62Q62 16 70 16V24Z" fill="#ffffff"/></g>
  <g id="mask-topright"><path d="M88 24H96Q96 16 88 16V24Z" fill="#ffffff"/></g>
  <g id="mask-bottomleft"><path d="M70 40H62Q62 48 70 48V40Z" fill="#ffffff"/></g>
  <g id="mask-bottomright"><path d="M88 40H96Q96 48 88 48V40Z" fill="#ffffff"/></g>

  <g id="shadow-center"><rect x="70" y="24" width="18" height="16" fill="#000000" opacity="0.02"/></g>
  <g id="shadow-top"><rect x="70" y="10" width="18" height="6" fill="url(#shadow-v)"/></g>
  <g id="shadow-bottom"><rect x="70" y="48" width="18" height="7" fill="#000000" opacity="0.20"/></g>
  <g id="shadow-left"><rect x="56" y="24" width="6" height="16" fill="url(#shadow-h)"/></g>
  <g id="shadow-right"><rect x="96" y="24" width="6" height="16" fill="url(#shadow-h)" transform="matrix(-1 0 0 1 198 0)"/></g>
  <g id="shadow-topleft"><circle cx="62" cy="16" r="6" fill="#000000" opacity="0.24"/></g>
  <g id="shadow-topright"><circle cx="96" cy="16" r="6" fill="#000000" opacity="0.24"/></g>
  <g id="shadow-bottomleft"><circle cx="62" cy="48" r="6" fill="#000000" opacity="0.18"/></g>
  <g id="shadow-bottomright"><circle cx="96" cy="48" r="6" fill="#000000" opacity="0.18"/></g>

  <rect id="shadow-hint-top-margin" x="78" y="2" width="2" height="8" fill="#ff00ff"/>
  <rect id="shadow-hint-bottom-margin" x="78" y="55" width="2" height="7" fill="#ff00ff"/>
  <rect id="shadow-hint-left-margin" x="50" y="31" width="6" height="2" fill="#ff00ff"/>
  <rect id="shadow-hint-right-margin" x="102" y="31" width="6" height="2" fill="#ff00ff"/>
  <rect id="shadow-hint-top-inset" x="78" y="10" width="2" height="6" fill="#ff00ff"/>
  <rect id="shadow-hint-bottom-inset" x="78" y="48" width="2" height="7" fill="#ff00ff"/>
  <rect id="shadow-hint-left-inset" x="56" y="31" width="6" height="2" fill="#ff00ff"/>
  <rect id="shadow-hint-right-inset" x="96" y="31" width="6" height="2" fill="#ff00ff"/>
</svg>
