<svg xmlns="http://www.w3.org/2000/svg" viewBox="0 0 256 256" role="img" aria-label="crixa-launcher">
  <defs>
    <linearGradient id="bg" x1="24" y1="18" x2="220" y2="238" gradientUnits="userSpaceOnUse">
      <stop offset="0" stop-color="#13233a"/>
      <stop offset="1" stop-color="#060b14"/>
    </linearGradient>
    <linearGradient id="frame" x1="26" y1="18" x2="214" y2="222" gradientUnits="userSpaceOnUse">
      <stop offset="0" stop-color="#294d7f"/>
      <stop offset="0.52" stop-color="#162c49"/>
      <stop offset="1" stop-color="#0e1725"/>
    </linearGradient>
    <linearGradient id="glass" x1="64" y1="88" x2="190" y2="188" gradientUnits="userSpaceOnUse">
      <stop offset="0" stop-color="#dceeff"/>
      <stop offset="0.5" stop-color="#9cc8ff"/>
      <stop offset="1" stop-color="#4f8fdd"/>
    </linearGradient>
    <linearGradient id="tile" x1="0" y1="0" x2="1" y2="1">
      <stop offset="0" stop-color="#eef7ff"/>
      <stop offset="1" stop-color="#81b6f4"/>
    </linearGradient>
    <filter id="shadow" x="-20%" y="-20%" width="140%" height="160%">
      <feDropShadow dx="0" dy="10" stdDeviation="8" flood-color="#02060c" flood-opacity="0.38"/>
    </filter>
  </defs>
  <rect width="256" height="256" rx="52" fill="url(#bg)"/>
  <rect x="18" y="18" width="220" height="220" rx="42" fill="url(#frame)"/>
  <rect x="18" y="18" width="220" height="220" rx="42" fill="none" stroke="#79c0ff" stroke-opacity="0.18" stroke-width="2"/>
  <path d="M30 42C64 24 112 16 198 20" stroke="#a8d8ff" stroke-opacity="0.22" stroke-width="8" stroke-linecap="round"/>
  <path d="M42 58H214" stroke="#58a6ff" stroke-width="4" stroke-linecap="round" opacity="0.45"/>
  <g filter="url(#shadow)">
    <rect x="58" y="78" width="140" height="104" rx="24" fill="#0f1623"/>
    <rect x="64" y="84" width="128" height="92" rx="20" fill="url(#glass)"/>
    <path d="M80 98H176" stroke="#ffffff" stroke-opacity="0.3" stroke-width="6" stroke-linecap="round"/>
    <rect x="82" y="110" width="40" height="40" rx="12" fill="url(#tile)"/>
    <rect x="134" y="110" width="40" height="40" rx="12" fill="url(#tile)" opacity="0.96"/>
    <rect x="82" y="156" width="40" height="40" rx="12" fill="#6ea9ea"/>
    <rect x="134" y="156" width="40" height="40" rx="12" fill="#dbeeff"/>
    <path d="M82 157h40" stroke="#f8fcff" stroke-opacity="0.32" stroke-width="5" stroke-linecap="round"/>
    <path d="M134 157h40" stroke="#f8fcff" stroke-opacity="0.32" stroke-width="5" stroke-linecap="round"/>
  </g>
</svg>
